<svg xmlns="http://www.w3.org/2000/svg" xmlns:xlink="http://www.w3.org/1999/xlink" width="200" height="87" viewBox="439 0 200 87"><defs><path id="1eqza" d="M56.21 2262.7a4.73 4.73 0 0 1 4.58 0c5.85 3.8 11.69 7.59 17.53 11.22 5.85-3.79 11.7-7.58 17.54-11.21a4.73 4.73 0 0 1 4.58 0c5.84 3.79 11.69 7.58 17.53 11.21 5.85-3.79 11.7-7.58 17.54-11.21a4.73 4.73 0 0 1 4.58 0c5.84 3.79 11.69 7.58 17.53 11.21 3.8-2.53 7.58-5.05 11.53-7.42l5.21-3.32c4.59-2.84 9.32 3.79 4.59 6.8-1.11.78-2.22 1.57-3.32 2.2l-15.64 10.11c-1.1.8-3.47.8-4.58 0-5.84-3.79-11.69-7.58-17.53-11.21-5.85 3.79-11.7 7.58-17.54 11.21-1.1.8-3.47.8-4.58 0-5.84-3.79-11.69-7.58-17.53-11.21-5.85 3.79-11.7 7.58-17.54 11.21-1.1.8-3.47.8-4.58 0-5.84-3.79-11.69-7.58-17.53-11.21-5.84 3.79-11.69 7.58-17.53 11.21-1.11.8-3.48.8-4.58 0-5.38-3.32-10.75-6.95-16.12-10.27l-.94-.63c-.48.32-.8.48-1.27.8l-15.64 10.1c-1.1.8-3.47.8-4.58 0-5.84-3.79-11.69-7.58-17.69-11.21a667.82 667.82 0 0 1-17.69 11.21c-1.1.8-3.48.8-4.58 0-5.85-3.79-11.69-7.58-17.7-11.21-5.84 3.79-11.68 7.58-17.53 11.21-1.1.8-3.47.8-4.58 0-5.84-3.79-11.69-7.58-17.53-11.21-5.85 3.79-11.69 7.58-17.53 11.21-1.11.8-3.48.8-4.59 0-5.37-3.32-10.74-6.95-16.1-10.27l-.95-.63c-.48.32-.8.48-1.27.8l-15.64 10.1c-1.1.8-3.47.8-4.58 0-5.84-3.79-11.69-7.58-17.69-11.21a1076.9 1076.9 0 0 1-17.53 11.21c-1.1.8-3.48.8-4.58 0-5.85-3.79-11.7-7.58-17.54-11.21a1076.9 1076.9 0 0 1-17.53 11.21c-1.1.8-3.48.8-4.58 0-5.85-3.79-11.7-7.58-17.54-11.21-5.84 3.79-11.68 7.58-17.53 11.21-1.1.8-3.47.8-4.58 0-5.37-3.32-10.74-6.95-16.11-10.27l-.95-.63c-.47.32-.79.48-1.26.8l-15.64 10.1c-1.1.8-3.48.8-4.58 0-5.85-3.79-11.7-7.58-17.7-11.21a667.84 667.84 0 0 1-17.69 11.21c-1.1.8-3.47.8-4.58 0-5.84-3.79-11.69-7.58-17.53-11.21-5.84 3.79-11.69 7.58-17.53 11.21-1.1.8-3.48.8-4.58 0-5.85-3.79-11.7-7.58-17.54-11.21-5.84 3.79-11.69 7.58-17.53 11.21-1.1.8-3.48.8-4.58 0-5.37-3.32-10.74-6.95-16.11-10.27l-2.85-1.89c-4.74-2.84 0-9.64 4.58-6.8l5.22 3.32-.16.16a1227 1227 0 0 0 11.53 7.27 1090 1090 0 0 1 17.53-11.22 4.72 4.72 0 0 1 4.58 0c5.85 3.8 11.7 7.59 17.54 11.22 5.84-3.8 11.69-7.58 17.53-11.22a4.72 4.72 0 0 1 4.58 0c5.85 3.8 11.7 7.59 17.54 11.22 5.84-3.8 11.68-7.58 17.53-11.22a4.72 4.72 0 0 1 4.58 0c5.84 3.8 11.69 7.59 17.7 11.22 3.78-2.53 7.57-5.06 11.52-7.43l5.22-3.31a4.34 4.34 0 0 1 3.63-.48c.47 0 1.1.32 1.58.64l5.21 3.31-.16.16c3.95 2.53 7.74 4.9 11.53 7.27 5.85-3.8 11.7-7.58 17.7-11.22a4.73 4.73 0 0 1 4.58 0c5.84 3.8 11.69 7.58 17.69 11.22 5.84-3.8 11.69-7.58 17.53-11.22a4.73 4.73 0 0 1 4.58 0c5.85 3.8 11.7 7.58 17.54 11.22 5.84-3.8 11.68-7.58 17.53-11.22a4.73 4.73 0 0 1 4.58 0c5.84 3.8 11.69 7.58 17.53 11.22 3.8-2.53 7.59-5.06 11.53-7.43l5.22-3.31a4.35 4.35 0 0 1 3.63-.48c.47 0 1.1.32 1.58.63l5.21 3.32v.16c3.95 2.53 7.74 4.9 11.53 7.27 5.85-3.8 11.7-7.59 17.54-11.22a4.73 4.73 0 0 1 4.58 0c5.84 3.79 11.69 7.58 17.69 11.22 5.84-3.8 11.69-7.59 17.53-11.22a4.73 4.73 0 0 1 4.58 0c5.85 3.79 11.7 7.58 17.54 11.22 5.84-3.8 11.69-7.59 17.53-11.22a4.73 4.73 0 0 1 4.58 0c5.85 3.79 11.7 7.58 17.7 11.22 3.79-2.53 7.58-5.06 11.53-7.43l5.2-3.32a4.35 4.35 0 0 1 3.64-.47c.48 0 1.1.32 1.58.63l5.21 3.32-.15.16c3.79 1.74 7.58 4.26 11.37 6.63 5.84-3.79 11.69-7.58 17.69-11.21zm0 22.12a4.72 4.72 0 0 1 4.58 0c5.85 3.8 11.69 7.58 17.53 11.22 5.85-3.8 11.7-7.59 17.54-11.22a4.72 4.72 0 0 1 4.58 0c5.84 3.8 11.69 7.58 17.53 11.22 5.85-3.8 11.7-7.59 17.54-11.22a4.72 4.72 0 0 1 4.58 0c5.84 3.8 11.69 7.58 17.53 11.22 3.8-2.53 7.58-5.06 11.53-7.43l5.21-3.32c4.59-2.84 9.32 3.8 4.59 6.8-1.11.79-2.22 1.58-3.32 2.2l-15.64 10.12c-1.1.79-3.47.79-4.58 0-5.84-3.8-11.69-7.59-17.53-11.22-5.85 3.8-11.7 7.58-17.54 11.22-1.1.79-3.47.79-4.58 0-5.84-3.8-11.69-7.59-17.53-11.22-5.85 3.8-11.7 7.58-17.54 11.22-1.1.79-3.47.79-4.58 0-5.84-3.8-11.69-7.59-17.53-11.22-5.84 3.8-11.69 7.58-17.53 11.22-1.11.79-3.48.79-4.58 0-5.38-3.32-10.75-6.95-16.12-10.27l-.94-.63c-.48.31-.8.47-1.27.79L2.5 2304.4c-1.1.8-3.47.8-4.58 0a670.32 670.32 0 0 0-17.69-11.2 672.88 672.88 0 0 1-17.69 11.2c-1.1.8-3.48.8-4.58 0a670.33 670.33 0 0 0-17.7-11.2 1090.3 1090.3 0 0 1-17.53 11.2c-1.1.8-3.47.8-4.58 0-5.84-3.78-11.69-7.58-17.53-11.2-5.85 3.78-11.69 7.57-17.53 11.2-1.11.8-3.48.8-4.59 0-5.37-3.31-10.74-6.94-16.1-10.26l-.95-.63c-.48.31-.8.47-1.27.79l-15.64 10.1c-1.1.8-3.47.8-4.58 0a670.33 670.33 0 0 0-17.69-11.2c-5.84 3.78-11.69 7.57-17.53 11.2-1.1.8-3.48.8-4.58 0-5.85-3.78-11.7-7.58-17.54-11.2-5.84 3.78-11.69 7.57-17.53 11.2-1.1.8-3.48.8-4.58 0a1083.5 1083.5 0 0 0-17.54-11.2c-5.84 3.78-11.68 7.57-17.53 11.2-1.1.8-3.47.8-4.58 0-5.37-3.31-10.74-6.94-16.11-10.26l-.95-.63c-.47.31-.79.47-1.26.79l-15.64 10.1c-1.1.8-3.48.8-4.58 0a670.33 670.33 0 0 0-17.7-11.2 672.9 672.9 0 0 1-17.69 11.2c-1.1.8-3.47.8-4.58 0-5.84-3.78-11.69-7.58-17.53-11.2-5.84 3.78-11.69 7.57-17.53 11.2-1.1.8-3.48.8-4.58 0-5.85-3.78-11.7-7.58-17.54-11.2-5.84 3.78-11.69 7.57-17.53 11.2-1.1.8-3.48.8-4.58 0-5.37-3.31-10.74-6.94-16.11-10.26l-2.85-1.9c-4.74-2.84 0-9.63 4.58-6.79l5.22 3.32-.16.16c3.95 2.52 7.74 4.9 11.53 7.26 5.84-3.79 11.69-7.58 17.53-11.21a4.73 4.73 0 0 1 4.58 0c5.85 3.79 11.7 7.58 17.54 11.21a1097 1097 0 0 1 17.53-11.21 4.73 4.73 0 0 1 4.58 0c5.85 3.79 11.7 7.58 17.54 11.21 5.84-3.79 11.68-7.58 17.53-11.21a4.73 4.73 0 0 1 4.58 0c5.84 3.79 11.69 7.58 17.7 11.21 3.78-2.52 7.57-5.05 11.52-7.42l5.22-3.32a4.35 4.35 0 0 1 3.63-.47c.47 0 1.1.31 1.58.63l5.21 3.32-.16.16c3.95 2.52 7.74 4.9 11.53 7.26 5.85-3.79 11.7-7.58 17.7-11.21a4.73 4.73 0 0 1 4.58 0c5.84 3.79 11.69 7.58 17.69 11.21 5.84-3.79 11.69-7.58 17.53-11.21a4.73 4.73 0 0 1 4.58 0c5.85 3.79 11.7 7.58 17.54 11.21 5.84-3.79 11.68-7.58 17.53-11.21a4.73 4.73 0 0 1 4.58 0c5.84 3.79 11.69 7.58 17.53 11.21 3.8-2.53 7.59-5.05 11.53-7.42l5.22-3.32a4.35 4.35 0 0 1 3.63-.47c.47 0 1.1.31 1.58.63l5.21 3.32v.15c3.95 2.53 7.74 4.9 11.53 7.27 5.85-3.8 11.7-7.58 17.54-11.22a4.73 4.73 0 0 1 4.58 0c5.84 3.8 11.69 7.59 17.69 11.22 5.84-3.8 11.69-7.58 17.53-11.22a4.73 4.73 0 0 1 4.58 0c5.85 3.8 11.7 7.59 17.54 11.22 5.84-3.8 11.69-7.58 17.53-11.22a4.73 4.73 0 0 1 4.58 0 670.5 670.5 0 0 0 17.7 11.22c3.79-2.53 7.58-5.06 11.53-7.42l5.2-3.32c1.27-.8 2.54-.8 3.64-.48.48 0 1.1.32 1.58.64l5.21 3.31-.15.16c3.79 1.74 7.58 4.27 11.37 6.64 5.84-3.8 11.69-7.59 17.69-11.22zm0-44.23a4.73 4.73 0 0 1 4.58 0c5.85 3.8 11.69 7.58 17.53 11.22 5.85-3.8 11.7-7.59 17.54-11.22a4.73 4.73 0 0 1 4.58 0c5.84 3.8 11.69 7.58 17.53 11.22 5.85-3.8 11.7-7.59 17.54-11.22a4.73 4.73 0 0 1 4.58 0c5.84 3.8 11.69 7.58 17.53 11.22 3.8-2.53 7.58-5.06 11.53-7.43l5.21-3.31c4.59-2.85 9.32 3.79 4.59 6.79-1.11.79-2.22 1.58-3.32 2.2l-15.64 10.12c-1.1.79-3.47.79-4.58 0-5.84-3.8-11.69-7.58-17.53-11.22-5.85 3.8-11.7 7.58-17.54 11.22-1.1.79-3.47.79-4.58 0-5.84-3.8-11.69-7.58-17.53-11.22-5.85 3.8-11.7 7.58-17.54 11.22-1.1.79-3.47.79-4.58 0-5.84-3.8-11.69-7.58-17.53-11.22-5.84 3.8-11.69 7.58-17.53 11.22-1.11.79-3.48.79-4.58 0-5.38-3.32-10.75-6.95-16.12-10.27l-.94-.63c-.48.31-.8.47-1.27.79l-15.64 10.1c-1.1.8-3.47.8-4.58 0-5.84-3.78-11.69-7.57-17.69-11.2a675.48 675.48 0 0 1-17.69 11.2c-1.1.8-3.48.8-4.58 0-5.85-3.78-11.69-7.57-17.7-11.2-5.84 3.78-11.68 7.57-17.53 11.2-1.1.8-3.47.8-4.58 0-5.84-3.78-11.69-7.57-17.53-11.2-5.85 3.78-11.69 7.57-17.53 11.2-1.11.8-3.48.8-4.59 0-5.37-3.31-10.74-6.94-16.1-10.26l-.95-.63c-.48.31-.8.47-1.27.79l-15.64 10.1c-1.1.8-3.47.8-4.58 0-5.84-3.78-11.69-7.57-17.69-11.2-5.84 3.78-11.69 7.57-17.53 11.2-1.1.8-3.48.8-4.58 0-5.85-3.78-11.7-7.57-17.54-11.2-5.84 3.78-11.69 7.57-17.53 11.2-1.1.8-3.48.8-4.58 0-5.85-3.78-11.7-7.57-17.54-11.2-5.84 3.78-11.68 7.57-17.53 11.2-1.1.8-3.47.8-4.58 0-5.37-3.31-10.74-6.94-16.11-10.26l-.95-.63c-.47.31-.79.47-1.26.79l-15.64 10.1c-1.1.8-3.48.8-4.58 0-5.85-3.78-11.7-7.57-17.7-11.2a675.5 675.5 0 0 1-17.69 11.2c-1.1.8-3.47.8-4.58 0-5.84-3.78-11.69-7.57-17.53-11.2-5.84 3.78-11.69 7.57-17.53 11.2-1.1.8-3.48.8-4.58 0-5.85-3.78-11.7-7.57-17.54-11.2a1097 1097 0 0 1-17.53 11.2c-1.1.8-3.48.8-4.58 0-5.37-3.31-10.74-6.94-16.11-10.26l-2.85-1.9c-4.74-2.84 0-9.63 4.58-6.79l5.22 3.32-.16.16c3.95 2.53 7.74 4.9 11.53 7.26 5.84-3.79 11.69-7.58 17.53-11.21 1.1-.8 3.48-.8 4.58 0 5.85 3.79 11.7 7.58 17.54 11.21 5.84-3.79 11.69-7.58 17.53-11.21 1.1-.8 3.48-.8 4.58 0 5.85 3.79 11.7 7.58 17.54 11.21 5.84-3.79 11.68-7.58 17.53-11.21 1.1-.8 3.47-.8 4.58 0 5.84 3.79 11.69 7.58 17.7 11.21 3.78-2.52 7.57-5.05 11.52-7.42l5.22-3.32a4.35 4.35 0 0 1 3.63-.47c.47 0 1.1.32 1.58.63l5.21 3.32-.16.16c3.95 2.52 7.74 4.9 11.53 7.26 5.85-3.79 11.7-7.58 17.7-11.21a4.72 4.72 0 0 1 4.58 0c5.84 3.79 11.69 7.58 17.69 11.21 5.84-3.79 11.69-7.58 17.53-11.21a4.72 4.72 0 0 1 4.58 0c5.85 3.79 11.7 7.58 17.54 11.21 5.84-3.79 11.68-7.58 17.53-11.21a4.72 4.72 0 0 1 4.58 0c5.84 3.79 11.69 7.58 17.53 11.21 3.8-2.53 7.59-5.05 11.53-7.42l5.22-3.32a4.35 4.35 0 0 1 3.63-.47c.47 0 1.1.31 1.58.63l5.21 3.32v.15c3.95 2.53 7.74 4.9 11.53 7.27 5.85-3.8 11.7-7.58 17.54-11.21 1.1-.8 3.47-.8 4.58 0 5.84 3.79 11.69 7.58 17.69 11.21 5.84-3.8 11.69-7.58 17.53-11.21 1.11-.8 3.48-.8 4.58 0 5.85 3.79 11.7 7.58 17.54 11.21 5.84-3.8 11.69-7.58 17.53-11.21 1.1-.8 3.48-.8 4.58 0 5.85 3.79 11.7 7.58 17.7 11.21 3.79-2.53 7.58-5.05 11.53-7.42l5.2-3.32a4.35 4.35 0 0 1 3.64-.47c.48 0 1.1.31 1.58.63l5.21 3.31-.15.16c3.79 1.74 7.58 4.27 11.37 6.64 5.84-3.8 11.69-7.59 17.69-11.22z"/><path id="1eqzb" d="M56.2 2284.7a4.73 4.73 0 0 1 4.59 0c5.84 3.8 11.69 7.59 17.53 11.22 5.85-3.79 11.7-7.58 17.54-11.21a4.73 4.73 0 0 1 4.58 0c5.84 3.79 11.69 7.58 17.53 11.21 5.85-3.79 11.7-7.58 17.54-11.21a4.73 4.73 0 0 1 4.58 0c5.84 3.79 11.69 7.58 17.53 11.21 3.8-2.53 7.58-5.05 11.53-7.42l5.21-3.32c4.58-2.84 9.32 3.79 4.58 6.8-1.1.78-2.2 1.57-3.31 2.2l-15.64 10.11c-1.1.8-3.48.8-4.58 0-5.85-3.79-11.69-7.58-17.54-11.21-5.84 3.79-11.68 7.58-17.53 11.21-1.1.8-3.47.8-4.58 0-5.84-3.79-11.69-7.58-17.53-11.21-5.85 3.79-11.7 7.58-17.54 11.21-1.1.8-3.47.8-4.58 0-5.84-3.79-11.69-7.58-17.53-11.21-5.85 3.79-11.69 7.58-17.53 11.21-1.11.8-3.48.8-4.59 0-5.37-3.32-10.74-6.95-16.1-10.27l-.96-.63c-.47.32-.79.48-1.26.8l-15.64 10.1c-1.1.8-3.47.8-4.58 0-5.84-3.79-11.69-7.58-17.69-11.21a667.82 667.82 0 0 1-17.7 11.21c-1.1.8-3.47.8-4.57 0-5.85-3.79-11.7-7.58-17.7-11.21-5.84 3.79-11.68 7.58-17.53 11.21-1.1.8-3.47.8-4.58 0-5.84-3.79-11.69-7.58-17.53-11.21-5.85 3.79-11.7 7.58-17.54 11.21-1.1.8-3.47.8-4.58 0-5.37-3.32-10.74-6.95-16.1-10.27l-.96-.63c-.47.32-.79.48-1.26.8l-15.64 10.1c-1.1.8-3.47.8-4.58 0-5.84-3.79-11.69-7.58-17.69-11.21a1076.9 1076.9 0 0 1-17.53 11.21c-1.1.8-3.48.8-4.58 0-5.85-3.79-11.7-7.58-17.54-11.21a1076.9 1076.9 0 0 1-17.53 11.21c-1.1.8-3.48.8-4.58 0-5.85-3.79-11.7-7.58-17.54-11.21-5.84 3.79-11.69 7.58-17.53 11.21-1.1.8-3.48.8-4.58 0-5.37-3.32-10.74-6.95-16.11-10.27l-.95-.63c-.47.32-.79.48-1.26.8l-15.64 10.1c-1.1.8-3.48.8-4.58 0-5.85-3.79-11.7-7.58-17.7-11.21a667.84 667.84 0 0 1-17.69 11.21c-1.1.8-3.47.8-4.58 0-5.84-3.79-11.69-7.58-17.53-11.21-5.85 3.79-11.69 7.58-17.53 11.21-1.11.8-3.48.8-4.59 0-5.84-3.79-11.68-7.58-17.53-11.21-5.84 3.79-11.69 7.58-17.53 11.21-1.1.8-3.48.8-4.58 0-5.37-3.32-10.74-6.95-16.12-10.27l-2.84-1.89c-4.74-2.84 0-9.64 4.58-6.8l5.21 3.32-.15.16a1227 1227 0 0 0 11.53 7.27 1090 1090 0 0 1 17.53-11.22 4.72 4.72 0 0 1 4.58 0c5.85 3.8 11.7 7.59 17.54 11.22 5.84-3.8 11.69-7.58 17.53-11.22a4.72 4.72 0 0 1 4.58 0c5.85 3.8 11.69 7.59 17.53 11.22 5.85-3.8 11.7-7.58 17.54-11.22a4.72 4.72 0 0 1 4.58 0c5.84 3.8 11.69 7.59 17.69 11.22 3.8-2.53 7.58-5.06 11.53-7.43l5.21-3.31a4.34 4.34 0 0 1 3.64-.48c.47 0 1.1.32 1.58.64l5.21 3.31-.16.16c3.95 2.53 7.74 4.9 11.53 7.27 5.85-3.8 11.7-7.58 17.7-11.22a4.73 4.73 0 0 1 4.58 0c5.84 3.8 11.68 7.58 17.69 11.22 5.84-3.8 11.69-7.58 17.53-11.22a4.73 4.73 0 0 1 4.58 0c5.85 3.8 11.69 7.58 17.53 11.22 5.85-3.8 11.7-7.58 17.54-11.22a4.73 4.73 0 0 1 4.58 0c5.84 3.8 11.69 7.58 17.53 11.22 3.8-2.53 7.58-5.06 11.53-7.43l5.22-3.31a4.35 4.35 0 0 1 3.63-.48c.47 0 1.1.32 1.58.63l5.21 3.32v.16c3.95 2.53 7.74 4.9 11.53 7.27 5.85-3.8 11.7-7.59 17.54-11.22a4.73 4.73 0 0 1 4.58 0c5.84 3.79 11.69 7.58 17.69 11.22 5.84-3.8 11.69-7.59 17.53-11.22a4.73 4.73 0 0 1 4.58 0c5.85 3.79 11.7 7.58 17.54 11.22 5.84-3.8 11.69-7.59 17.53-11.22a4.73 4.73 0 0 1 4.58 0c5.85 3.79 11.7 7.58 17.7 11.22 3.78-2.53 7.58-5.06 11.52-7.43l5.22-3.32a4.35 4.35 0 0 1 3.63-.47c.47 0 1.1.32 1.58.63l5.21 3.32-.16.16c3.8 1.74 7.59 4.26 11.38 6.63 5.84-3.79 11.69-7.58 17.69-11.21zm0 22.12a4.72 4.72 0 0 1 4.59 0c5.84 3.8 11.69 7.58 17.53 11.22 5.85-3.8 11.7-7.59 17.54-11.22a4.72 4.72 0 0 1 4.58 0c5.84 3.8 11.69 7.58 17.53 11.22 5.85-3.8 11.7-7.59 17.54-11.22a4.72 4.72 0 0 1 4.58 0c5.84 3.8 11.69 7.58 17.53 11.22 3.8-2.53 7.58-5.06 11.53-7.43l5.21-3.32c4.58-2.84 9.32 3.8 4.58 6.8-1.1.79-2.2 1.58-3.31 2.2l-15.64 10.12c-1.1.79-3.48.79-4.58 0-5.85-3.8-11.69-7.59-17.54-11.22-5.84 3.8-11.68 7.58-17.53 11.22-1.1.79-3.47.79-4.58 0-5.84-3.8-11.69-7.59-17.53-11.22-5.85 3.8-11.7 7.58-17.54 11.22-1.1.79-3.47.79-4.58 0-5.84-3.8-11.69-7.59-17.53-11.22-5.85 3.8-11.69 7.58-17.53 11.22-1.11.79-3.48.79-4.59 0-5.37-3.32-10.74-6.95-16.1-10.27l-.96-.63c-.47.31-.79.47-1.26.79L2.5 2326.4c-1.1.8-3.47.8-4.58 0a670.32 670.32 0 0 0-17.69-11.2 672.88 672.88 0 0 1-17.7 11.2c-1.1.8-3.47.8-4.57 0a670.33 670.33 0 0 0-17.7-11.2 1090.3 1090.3 0 0 1-17.53 11.2c-1.1.8-3.47.8-4.58 0-5.84-3.78-11.69-7.58-17.53-11.2-5.85 3.78-11.7 7.57-17.54 11.2-1.1.8-3.47.8-4.58 0-5.37-3.31-10.74-6.94-16.1-10.26l-.96-.63c-.47.31-.79.47-1.26.79l-15.64 10.1c-1.1.8-3.47.8-4.58 0a670.33 670.33 0 0 0-17.69-11.2c-5.84 3.78-11.69 7.57-17.53 11.2-1.1.8-3.48.8-4.58 0-5.85-3.78-11.7-7.58-17.54-11.2-5.84 3.78-11.69 7.57-17.53 11.2-1.1.8-3.48.8-4.58 0a1083.5 1083.5 0 0 0-17.54-11.2c-5.84 3.78-11.69 7.57-17.53 11.2-1.1.8-3.48.8-4.58 0-5.37-3.31-10.74-6.94-16.11-10.26l-.95-.63c-.47.31-.79.47-1.26.79l-15.64 10.1c-1.1.8-3.48.8-4.58 0a670.33 670.33 0 0 0-17.7-11.2 672.9 672.9 0 0 1-17.69 11.2c-1.1.8-3.47.8-4.58 0-5.84-3.78-11.69-7.58-17.53-11.2-5.85 3.78-11.69 7.57-17.53 11.2-1.11.8-3.48.8-4.59 0-5.84-3.78-11.68-7.58-17.53-11.2-5.84 3.78-11.69 7.57-17.53 11.2-1.1.8-3.48.8-4.58 0-5.37-3.31-10.74-6.94-16.12-10.26l-2.84-1.9c-4.74-2.84 0-9.63 4.58-6.79l5.21 3.32-.15.16c3.95 2.52 7.74 4.9 11.53 7.26 5.84-3.79 11.69-7.58 17.53-11.21a4.73 4.73 0 0 1 4.58 0c5.85 3.79 11.7 7.58 17.54 11.21a1097 1097 0 0 1 17.53-11.21 4.73 4.73 0 0 1 4.58 0c5.85 3.79 11.69 7.58 17.53 11.21 5.85-3.79 11.7-7.58 17.54-11.21a4.73 4.73 0 0 1 4.58 0c5.84 3.79 11.69 7.58 17.69 11.21 3.8-2.52 7.58-5.05 11.53-7.42l5.21-3.32a4.35 4.35 0 0 1 3.64-.47c.47 0 1.1.31 1.58.63l5.21 3.32-.16.16c3.95 2.52 7.74 4.9 11.53 7.26 5.85-3.79 11.7-7.58 17.7-11.21a4.73 4.73 0 0 1 4.58 0c5.84 3.79 11.68 7.58 17.69 11.21 5.84-3.79 11.69-7.58 17.53-11.21a4.73 4.73 0 0 1 4.58 0c5.85 3.79 11.69 7.58 17.53 11.21 5.85-3.79 11.7-7.58 17.54-11.21a4.73 4.73 0 0 1 4.58 0c5.84 3.79 11.69 7.58 17.53 11.21 3.8-2.53 7.58-5.05 11.53-7.42l5.22-3.32a4.35 4.35 0 0 1 3.63-.47c.47 0 1.1.31 1.58.63l5.21 3.32v.15c3.95 2.53 7.74 4.9 11.53 7.27 5.85-3.8 11.7-7.58 17.54-11.22a4.73 4.73 0 0 1 4.58 0c5.84 3.8 11.69 7.59 17.69 11.22 5.84-3.8 11.69-7.58 17.53-11.22a4.73 4.73 0 0 1 4.58 0c5.85 3.8 11.7 7.59 17.54 11.22 5.84-3.8 11.69-7.58 17.53-11.22a4.73 4.73 0 0 1 4.58 0 670.5 670.5 0 0 0 17.7 11.22c3.78-2.53 7.58-5.06 11.52-7.42l5.22-3.32c1.26-.8 2.52-.8 3.63-.48.47 0 1.1.32 1.58.64l5.21 3.31-.16.16c3.8 1.74 7.59 4.27 11.38 6.64 5.84-3.8 11.69-7.59 17.69-11.22zm0-44.23a4.73 4.73 0 0 1 4.59 0c5.84 3.8 11.69 7.58 17.53 11.22 5.85-3.8 11.7-7.59 17.54-11.22a4.73 4.73 0 0 1 4.58 0c5.84 3.8 11.69 7.58 17.53 11.22 5.85-3.8 11.7-7.59 17.54-11.22a4.73 4.73 0 0 1 4.58 0c5.84 3.8 11.69 7.58 17.53 11.22 3.8-2.53 7.58-5.06 11.53-7.43l5.21-3.31c4.58-2.85 9.32 3.79 4.58 6.79-1.1.79-2.2 1.58-3.31 2.2l-15.64 10.12c-1.1.79-3.48.79-4.58 0-5.85-3.8-11.69-7.58-17.54-11.22-5.84 3.8-11.68 7.58-17.53 11.22-1.1.79-3.47.79-4.58 0-5.84-3.8-11.69-7.58-17.53-11.22-5.85 3.8-11.7 7.58-17.54 11.22-1.1.79-3.47.79-4.58 0-5.84-3.8-11.69-7.58-17.53-11.22-5.85 3.8-11.69 7.58-17.53 11.22-1.11.79-3.48.79-4.59 0-5.37-3.32-10.74-6.95-16.1-10.27l-.96-.63c-.47.31-.79.47-1.26.79l-15.64 10.1c-1.1.8-3.47.8-4.58 0-5.84-3.78-11.69-7.57-17.69-11.2a675.48 675.48 0 0 1-17.7 11.2c-1.1.8-3.47.8-4.57 0-5.85-3.78-11.7-7.57-17.7-11.2-5.84 3.78-11.68 7.57-17.53 11.2-1.1.8-3.47.8-4.58 0-5.84-3.78-11.69-7.57-17.53-11.2-5.85 3.78-11.7 7.57-17.54 11.2-1.1.8-3.47.8-4.58 0-5.37-3.31-10.74-6.94-16.1-10.26l-.96-.63c-.47.31-.79.47-1.26.79l-15.64 10.1c-1.1.8-3.47.8-4.58 0-5.84-3.78-11.69-7.57-17.69-11.2-5.84 3.78-11.69 7.57-17.53 11.2-1.1.8-3.48.8-4.58 0-5.85-3.78-11.7-7.57-17.54-11.2-5.84 3.78-11.69 7.57-17.53 11.2-1.1.8-3.48.8-4.58 0-5.85-3.78-11.7-7.57-17.54-11.2-5.84 3.78-11.69 7.57-17.53 11.2-1.1.8-3.48.8-4.58 0-5.37-3.31-10.74-6.94-16.11-10.26l-.95-.63c-.47.31-.79.47-1.26.79l-15.64 10.1c-1.1.8-3.48.8-4.58 0-5.85-3.78-11.7-7.57-17.7-11.2a675.5 675.5 0 0 1-17.69 11.2c-1.1.8-3.47.8-4.58 0-5.84-3.78-11.69-7.57-17.53-11.2-5.85 3.78-11.69 7.57-17.53 11.2-1.11.8-3.48.8-4.59 0-5.84-3.78-11.68-7.57-17.53-11.2a1097 1097 0 0 1-17.53 11.2c-1.1.8-3.48.8-4.58 0-5.37-3.31-10.74-6.94-16.12-10.26l-2.84-1.9c-4.74-2.84 0-9.63 4.58-6.79l5.21 3.32-.15.16c3.95 2.53 7.74 4.9 11.53 7.26 5.84-3.79 11.69-7.58 17.53-11.21 1.1-.8 3.48-.8 4.58 0 5.85 3.79 11.7 7.58 17.54 11.21 5.84-3.79 11.69-7.58 17.53-11.21 1.1-.8 3.47-.8 4.58 0 5.85 3.79 11.69 7.58 17.53 11.21 5.85-3.79 11.7-7.58 17.54-11.21 1.1-.8 3.47-.8 4.58 0 5.84 3.79 11.69 7.58 17.69 11.21 3.8-2.52 7.58-5.05 11.53-7.42l5.21-3.32a4.35 4.35 0 0 1 3.64-.47c.47 0 1.1.32 1.58.63l5.21 3.32-.16.16c3.95 2.52 7.74 4.9 11.53 7.26 5.85-3.79 11.7-7.58 17.7-11.21a4.72 4.72 0 0 1 4.58 0c5.84 3.79 11.68 7.58 17.69 11.21 5.84-3.79 11.69-7.58 17.53-11.21a4.72 4.72 0 0 1 4.58 0c5.85 3.79 11.69 7.58 17.53 11.21 5.85-3.79 11.7-7.58 17.54-11.21a4.72 4.72 0 0 1 4.58 0c5.84 3.79 11.69 7.58 17.53 11.21 3.8-2.53 7.58-5.05 11.53-7.42l5.22-3.32a4.35 4.35 0 0 1 3.63-.47c.47 0 1.1.31 1.58.63l5.21 3.32v.15c3.95 2.53 7.74 4.9 11.53 7.27 5.85-3.8 11.7-7.58 17.54-11.21 1.1-.8 3.47-.8 4.58 0 5.84 3.79 11.69 7.58 17.69 11.21 5.84-3.8 11.69-7.58 17.53-11.21 1.1-.8 3.48-.8 4.58 0 5.85 3.79 11.7 7.58 17.54 11.21 5.84-3.8 11.69-7.58 17.53-11.21 1.1-.8 3.48-.8 4.58 0 5.85 3.79 11.7 7.58 17.7 11.21 3.78-2.53 7.58-5.05 11.52-7.42l5.22-3.32a4.35 4.35 0 0 1 3.63-.47c.47 0 1.1.31 1.58.63l5.21 3.31-.16.16c3.8 1.74 7.59 4.27 11.38 6.64 5.84-3.8 11.69-7.59 17.69-11.22z"/></defs><g><g transform="translate(458 -2240)"><use fill="#7a7a7a" xlink:href="#1eqza"/></g><g transform="translate(458 -2240)"><use fill="#7a7a7a" xlink:href="#1eqzb"/></g></g></svg>